[b]THE LAST SAM WEISS[/b]

[img]http://1.bp.blogspot.com/-nNpR4AH0wVk/TVaTLk-6zWI/AAAAAAAAAFc/qB6jp0pPLt4/s1600/tv_fringe28.jpg[/img]


[b]Sinopse:[/b]
Olivia joins forces with the mysterious Sam Weiss in a desperate race against time.

[b]Infos:[/b]
[code]General
Unique ID                        : 219385090544962035452987254151181577710 (0xA50C0811E89F22F384CDFD24F6A52DEE)
Complete name                    : C:\\\\Downloads\\\\Fringe.S03E21.720p.HDTV.X264-DIMENSION\\\\Fringe.S03E21.720p.HDTV.X264-DIMENSION.mkv
Format                           : Matroska
File size                        : 1.09 GiB
Duration                         : 42mn 38s
Overall bit rate                 : 3 669 Kbps
Encoded date                     : UTC 2011-04-29 23:11:02
Writing application              : mkvmerge v3.1.0 (\\\'Happy up here\\\') built on Jan 19 2010 12:09:24
Writing library                  : libebml v0.7.9 + libmatroska v0.8.1

Video
ID                               : 1
Format                           : AVC
Format/Info                      : Advanced Video Codec
Format profile                   : High@L4.1
Format settings, CABAC           : Yes
Format settings, ReFrames        : 8 frames
Codec ID                         : V_MPEG4/ISO/AVC
Duration                         : 42mn 38s
Bit rate                         : 3 219 Kbps
Width                            : 1 280 pixels
Height                           : 720 pixels
Display aspect ratio             : 16:9
Frame rate                       : 23.976 fps
Color space                      : YUV
Chroma subsampling               : 4:2:0
Bit depth                        : 8 bits
Scan type                        : Progressive
Bits/(Pixel*Frame)               : 0.146
Stream size                      : 960 MiB (86%)
Writing library                  : x264 core 113 r1884 7313bb5
Encoding settings                : cabac=1 / ref=8 / deblock=1:0:0 / analyse=0x3:0x113 / me=umh / subme=9 / psy=1 / psy_rd=1.00:0.00 / mixed_ref=1 / me_range=24 / chroma_me=1 / trellis=1 / 8x8dct=1 / cqm=0 / deadzone=21,11 / fast_pskip=0 / chroma_qp_offset=-2 / threads=12 / sliced_threads=0 / nr=0 / decimate=1 / interlaced=0 / constrained_intra=0 / bframes=5 / b_pyramid=2 / b_adapt=1 / b_bias=0 / direct=1 / weightb=1 / open_gop=0 / weightp=2 / keyint=250 / keyint_min=23 / scenecut=40 / intra_refresh=0 / rc_lookahead=40 / rc=2pass / mbtree=1 / bitrate=3219 / ratetol=1.0 / qcomp=0.60 / qpmin=0 / qpmax=69 / qpstep=4 / cplxblur=20.0 / qblur=0.5 / ip_ratio=1.40 / aq=1:1.00
Language                         : English

Audio
ID                               : 2
Format                           : AC-3
Format/Info                      : Audio Coding 3
Mode extension                   : CM (complete main)
Codec ID                         : A_AC3
Duration                         : 42mn 38s
Bit rate mode                    : Constant
Bit rate                         : 448 Kbps
Channel(s)                       : 6 channels
Channel positions                : Front: L C R, Side: L R, LFE
Sampling rate                    : 48.0 KHz
Bit depth                        : 16 bits
Compression mode                 : Lossy
Stream size                      : 137 MiB (12%)[/code]

Screens: